# xmcd CD database file
#
# Track frame offsets:
#	150
#	17073
#	34875
#	51797
#
# Disc length: 926 seconds
#
# Revision: 0
# Processed by: cddbd v1.5.1PL0 Copyright (c) Steve Scherf et al.
# Submitted via: CDex 1.50beta8
#
DISCID=2b039c04
DTITLE=鈴木かすみとHermiesCrab - ヤドカリカリカリ
DYEAR=2004
DGENRE=JPop
TTITLE0=ヤドカリカリカリ
TTITLE1=お家へ帰ろう
TTITLE2=ヤドカリカリカリ (Instrumental)
TTITLE3=お家へ帰ろう (Instrumental)
EXTD=YEAR: 2004/07/28
EXTT0=
EXTT1=
EXTT2=
EXTT3=
PLAYORDER=
